<svg width="128" height="128" viewBox="0 0 24 24" fill="none" xmlns="http://www.w3.org/2000/svg">
  <path d="M9.5 2A2.5 2.5 0 0 1 12 4.5v15A2.5 2.5 0 0 1 9.5 22 5 5 0 0 1 5 17a4 4 0 0 1 0-8 5 5 0 0 1 4.5-7z" fill="#1a73e8" stroke="#202124" stroke-width="1.8" stroke-linejoin="round"/><path d="M14.5 2A2.5 2.5 0 0 0 12 4.5v15A2.5 2.5 0 0 0 14.5 22 5 5 0 0 0 19 17a4 4 0 0 0 0-8 5 5 0 0 0-4.5-7z" fill="#1a73e8" stroke="#202124" stroke-width="1.8" stroke-linejoin="round"/><path d="M12 9h4M12 13h5M12 17h3" stroke="#202124" stroke-width="1.8" stroke-linecap="round"/>
</svg>
